<svg xmlns="http://www.w3.org/2000/svg" version="1.1" xmlns:xlink="http://www.w3.org/1999/xlink" xmlns:svgjs="http://svgjs.dev/svgjs" viewBox="0 0 800 800"><defs><linearGradient x1="50%" y1="0%" x2="50%" y2="100%" id="ffflurry-grad" gradientTransform="rotate(270)"><stop stop-color="hsl(0, 0%, 100%)" stop-opacity="1" offset="0%"></stop><stop stop-color="hsl(0, 0%, 80%)" stop-opacity="1" offset="45%"></stop><stop stop-color="hsl(0, 0%, 53%)" stop-opacity="1" offset="100%"></stop></linearGradient></defs><rect width="100%" height="100%" fill="hsl(0, 0%, 100%)"></rect><g fill="url(#ffflurry-grad)"><rect width="101" height="1" x="590.5" y="315.5" rx="0.5" transform="rotate(37, 641, 316)" opacity="0.93"></rect><rect width="96" height="1" x="51" y="145.5" rx="0.5" transform="rotate(37, 99, 146)" opacity="0.58"></rect><rect width="70" height="1" x="78" y="593.5" rx="0.5" transform="rotate(37, 113, 594)" opacity="0.44"></rect><rect width="62" height="1" x="97" y="250.5" rx="0.5" transform="rotate(37, 128, 251)" opacity="0.48"></rect><rect width="74" height="1" x="174" y="681.5" rx="0.5" transform="rotate(37, 211, 682)" opacity="0.13"></rect><rect width="66" height="1" x="22" y="667.5" rx="0.5" transform="rotate(37, 55, 668)" opacity="0.41"></rect><rect width="100" height="1" x="381" y="477.5" rx="0.5" transform="rotate(37, 431, 478)" opacity="0.18"></rect><rect width="47" height="1" x="247.5" y="72.5" rx="0.5" transform="rotate(37, 271, 73)" opacity="0.67"></rect><rect width="77" height="1" x="-6.5" y="161.5" rx="0.5" transform="rotate(37, 32, 162)" opacity="0.63"></rect><rect width="43" height="1" x="460.5" y="638.5" rx="0.5" transform="rotate(37, 482, 639)" opacity="0.24"></rect><rect width="53" height="1" x="310.5" y="549.5" rx="0.5" transform="rotate(37, 337, 550)" opacity="0.80"></rect><rect width="46" height="1" x="596" y="458.5" rx="0.5" transform="rotate(37, 619, 459)" opacity="0.87"></rect><rect width="71" height="1" x="488.5" y="753.5" rx="0.5" transform="rotate(37, 524, 754)" opacity="0.33"></rect><rect width="33" height="1" x="450.5" y="333.5" rx="0.5" transform="rotate(37, 467, 334)" opacity="0.75"></rect><rect width="70" height="1" x="736" y="586.5" rx="0.5" transform="rotate(37, 771, 587)" opacity="0.18"></rect><rect width="75" height="1" x="487.5" y="192.5" rx="0.5" transform="rotate(37, 525, 193)" opacity="0.21"></rect><rect width="51" height="1" x="696.5" y="775.5" rx="0.5" transform="rotate(37, 722, 776)" opacity="0.44"></rect><rect width="97" height="1" x="87.5" y="51.5" rx="0.5" transform="rotate(37, 136, 52)" opacity="0.09"></rect><rect width="116" height="1" x="463" y="384.5" rx="0.5" transform="rotate(37, 521, 385)" opacity="0.62"></rect><rect width="46" height="1" x="317" y="105.5" rx="0.5" transform="rotate(37, 340, 106)" opacity="0.74"></rect><rect width="105" height="1" x="276.5" y="235.5" rx="0.5" transform="rotate(37, 329, 236)" opacity="0.22"></rect><rect width="94" height="1" x="626" y="716.5" rx="0.5" transform="rotate(37, 673, 717)" opacity="0.41"></rect><rect width="52" height="1" x="6" y="743.5" rx="0.5" transform="rotate(37, 32, 744)" opacity="0.14"></rect><rect width="36" height="1" x="563" y="771.5" rx="0.5" transform="rotate(37, 581, 772)" opacity="0.40"></rect><rect width="58" height="1" x="575" y="701.5" rx="0.5" transform="rotate(37, 604, 702)" opacity="0.64"></rect><rect width="46" height="1" x="378" y="255.5" rx="0.5" transform="rotate(37, 401, 256)" opacity="0.31"></rect><rect width="111" height="1" x="464.5" y="479.5" rx="0.5" transform="rotate(37, 520, 480)" opacity="0.34"></rect><rect width="47" height="1" x="253.5" y="770.5" rx="0.5" transform="rotate(37, 277, 771)" opacity="0.18"></rect><rect width="49" height="1" x="61.5" y="768.5" rx="0.5" transform="rotate(37, 86, 769)" opacity="0.83"></rect><rect width="85" height="1" x="668.5" y="646.5" rx="0.5" transform="rotate(37, 711, 647)" opacity="0.99"></rect><rect width="64" height="1" x="550" y="615.5" rx="0.5" transform="rotate(37, 582, 616)" opacity="0.83"></rect><rect width="70" height="1" x="521" y="113.5" rx="0.5" transform="rotate(37, 556, 114)" opacity="0.10"></rect><rect width="81" height="1" x="443.5" y="34.5" rx="0.5" transform="rotate(37, 484, 35)" opacity="0.96"></rect><rect width="85" height="1" x="178.5" y="113.5" rx="0.5" transform="rotate(37, 221, 114)" opacity="0.24"></rect><rect width="108" height="1" x="337" y="47.5" rx="0.5" transform="rotate(37, 391, 48)" opacity="0.66"></rect><rect width="115" height="1" x="651.5" y="542.5" rx="0.5" transform="rotate(37, 709, 543)" opacity="0.52"></rect><rect width="74" height="1" x="237" y="361.5" rx="0.5" transform="rotate(37, 274, 362)" opacity="0.50"></rect><rect width="115" height="1" x="304.5" y="756.5" rx="0.5" transform="rotate(37, 362, 757)" opacity="0.36"></rect><rect width="98" height="1" x="131" y="443.5" rx="0.5" transform="rotate(37, 180, 444)" opacity="0.86"></rect><rect width="93" height="1" x="167.5" y="32.5" rx="0.5" transform="rotate(37, 214, 33)" opacity="0.31"></rect><rect width="107" height="1" x="99.5" y="745.5" rx="0.5" transform="rotate(37, 153, 746)" opacity="0.66"></rect><rect width="32" height="1" x="345" y="399.5" rx="0.5" transform="rotate(37, 361, 400)" opacity="0.22"></rect><rect width="57" height="1" x="412.5" y="394.5" rx="0.5" transform="rotate(37, 441, 395)" opacity="0.43"></rect><rect width="90" height="1" x="383" y="172.5" rx="0.5" transform="rotate(37, 428, 173)" opacity="0.30"></rect><rect width="91" height="1" x="300.5" y="467.5" rx="0.5" transform="rotate(37, 346, 468)" opacity="0.31"></rect><rect width="49" height="1" x="527.5" y="307.5" rx="0.5" transform="rotate(37, 552, 308)" opacity="0.56"></rect><rect width="112" height="1" x="-27" y="421.5" rx="0.5" transform="rotate(37, 29, 422)" opacity="0.41"></rect><rect width="51" height="1" x="497.5" y="565.5" rx="0.5" transform="rotate(37, 523, 566)" opacity="0.43"></rect><rect width="72" height="1" x="602" y="768.5" rx="0.5" transform="rotate(37, 638, 769)" opacity="0.80"></rect><rect width="65" height="1" x="231.5" y="450.5" rx="0.5" transform="rotate(37, 264, 451)" opacity="0.21"></rect><rect width="140" height="1" x="-25" y="52.5" rx="0.5" transform="rotate(37, 45, 53)" opacity="0.42"></rect><rect width="137" height="1" x="285.5" y="666.5" rx="0.5" transform="rotate(37, 354, 667)" opacity="0.16"></rect><rect width="93" height="1" x="413.5" y="112.5" rx="0.5" transform="rotate(37, 460, 113)" opacity="0.10"></rect><rect width="68" height="1" x="286" y="304.5" rx="0.5" transform="rotate(37, 320, 305)" opacity="0.43"></rect><rect width="51" height="1" x="122.5" y="526.5" rx="0.5" transform="rotate(37, 148, 527)" opacity="0.61"></rect><rect width="49" height="1" x="419.5" y="707.5" rx="0.5" transform="rotate(37, 444, 708)" opacity="0.92"></rect><rect width="63" height="1" x="47.5" y="481.5" rx="0.5" transform="rotate(37, 79, 482)" opacity="0.66"></rect><rect width="82" height="1" x="21" y="335.5" rx="0.5" transform="rotate(37, 62, 336)" opacity="0.93"></rect><rect width="44" height="1" x="206" y="533.5" rx="0.5" transform="rotate(37, 228, 534)" opacity="0.77"></rect><rect width="58" height="1" x="145" y="163.5" rx="0.5" transform="rotate(37, 174, 164)" opacity="0.41"></rect><rect width="75" height="1" x="667.5" y="429.5" rx="0.5" transform="rotate(37, 705, 430)" opacity="0.22"></rect><rect width="60" height="1" x="133" y="637.5" rx="0.5" transform="rotate(37, 163, 638)" opacity="0.96"></rect><rect width="36" height="1" x="296" y="27.5" rx="0.5" transform="rotate(37, 314, 28)" opacity="0.89"></rect><rect width="48" height="1" x="454" y="243.5" rx="0.5" transform="rotate(37, 478, 244)" opacity="0.10"></rect><rect width="74" height="1" x="500" y="679.5" rx="0.5" transform="rotate(37, 537, 680)" opacity="0.37"></rect><rect width="58" height="1" x="240" y="615.5" rx="0.5" transform="rotate(37, 269, 616)" opacity="0.21"></rect><rect width="29" height="1" x="25.5" y="527.5" rx="0.5" transform="rotate(37, 40, 528)" opacity="0.83"></rect><rect width="72" height="1" x="706" y="95.5" rx="0.5" transform="rotate(37, 742, 96)" opacity="0.58"></rect><rect width="50" height="1" x="332" y="169.5" rx="0.5" transform="rotate(37, 357, 170)" opacity="0.36"></rect><rect width="62" height="1" x="394" y="584.5" rx="0.5" transform="rotate(37, 425, 585)" opacity="0.44"></rect><rect width="123" height="1" x="121.5" y="340.5" rx="0.5" transform="rotate(37, 183, 341)" opacity="0.64"></rect><rect width="73" height="1" x="216.5" y="723.5" rx="0.5" transform="rotate(37, 253, 724)" opacity="0.17"></rect><rect width="39" height="1" x="256.5" y="165.5" rx="0.5" transform="rotate(37, 276, 166)" opacity="0.73"></rect><rect width="54" height="1" x="206" y="247.5" rx="0.5" transform="rotate(37, 233, 248)" opacity="0.70"></rect><rect width="134" height="1" x="595" y="197.5" rx="0.5" transform="rotate(37, 662, 198)" opacity="0.96"></rect><rect width="74" height="1" x="587" y="48.5" rx="0.5" transform="rotate(37, 624, 49)" opacity="0.59"></rect><rect width="46" height="1" x="425" y="774.5" rx="0.5" transform="rotate(37, 448, 775)" opacity="0.32"></rect><rect width="51" height="1" x="595.5" y="385.5" rx="0.5" transform="rotate(37, 621, 386)" opacity="0.63"></rect><rect width="65" height="1" x="550.5" y="234.5" rx="0.5" transform="rotate(37, 583, 235)" opacity="0.31"></rect><rect width="50" height="1" x="618" y="631.5" rx="0.5" transform="rotate(37, 643, 632)" opacity="0.46"></rect><rect width="32" height="1" x="440" y="293.5" rx="0.5" transform="rotate(37, 456, 294)" opacity="0.96"></rect><rect width="34" height="1" x="368" y="335.5" rx="0.5" transform="rotate(37, 385, 336)" opacity="0.53"></rect><rect width="58" height="1" x="718" y="285.5" rx="0.5" transform="rotate(37, 747, 286)" opacity="0.88"></rect><rect width="107" height="1" x="564.5" y="537.5" rx="0.5" transform="rotate(37, 618, 538)" opacity="0.34"></rect><rect width="34" height="1" x="753" y="434.5" rx="0.5" transform="rotate(37, 770, 435)" opacity="0.89"></rect><rect width="43" height="1" x="742.5" y="717.5" rx="0.5" transform="rotate(37, 764, 718)" opacity="0.48"></rect><rect width="62" height="1" x="4" y="594.5" rx="0.5" transform="rotate(37, 35, 595)" opacity="0.37"></rect><rect width="67" height="1" x="4.5" y="253.5" rx="0.5" transform="rotate(37, 38, 254)" opacity="0.47"></rect><rect width="54" height="1" x="85" y="408.5" rx="0.5" transform="rotate(37, 112, 409)" opacity="0.48"></rect></g></svg>