<svg xmlns="http://www.w3.org/2000/svg" version="1.1" xmlns:xlink="http://www.w3.org/1999/xlink" xmlns:svgjs="http://svgjs.dev/svgjs" viewBox="0 0 800 800"><defs><linearGradient x1="50%" y1="0%" x2="50%" y2="100%" id="ffflurry-grad" gradientTransform="rotate(270)"><stop stop-color="hsl(0, 0%, 7%)" stop-opacity="1" offset="0%"></stop><stop stop-color="hsl(0, 0%, 53%)" stop-opacity="1" offset="45%"></stop><stop stop-color="hsl(0, 0%, 80%)" stop-opacity="1" offset="100%"></stop></linearGradient></defs><rect width="100%" height="100%" fill="hsl(0, 0%, 7%)"></rect><g fill="url(#ffflurry-grad)"><rect width="85" height="1" x="50.5" y="93.5" rx="0.5" transform="rotate(45, 93, 94)" opacity="0.93"></rect><rect width="112" height="1" x="4" y="325.5" rx="0.5" transform="rotate(45, 60, 326)" opacity="0.36"></rect><rect width="114" height="1" x="170" y="195.5" rx="0.5" transform="rotate(45, 227, 196)" opacity="0.80"></rect><rect width="71" height="1" x="410.5" y="720.5" rx="0.5" transform="rotate(45, 446, 721)" opacity="0.73"></rect><rect width="94" height="1" x="279" y="363.5" rx="0.5" transform="rotate(45, 326, 364)" opacity="0.69"></rect><rect width="79" height="1" x="397.5" y="148.5" rx="0.5" transform="rotate(45, 437, 149)" opacity="0.58"></rect><rect width="115" height="1" x="2.5" y="683.5" rx="0.5" transform="rotate(45, 60, 684)" opacity="0.50"></rect><rect width="74" height="1" x="280" y="69.5" rx="0.5" transform="rotate(45, 317, 70)" opacity="0.61"></rect><rect width="93" height="1" x="145.5" y="355.5" rx="0.5" transform="rotate(45, 192, 356)" opacity="0.58"></rect><rect width="125" height="1" x="600.5" y="312.5" rx="0.5" transform="rotate(45, 663, 313)" opacity="0.49"></rect><rect width="68" height="1" x="709" y="574.5" rx="0.5" transform="rotate(45, 743, 575)" opacity="0.73"></rect><rect width="80" height="1" x="457" y="50.5" rx="0.5" transform="rotate(45, 497, 51)" opacity="0.14"></rect><rect width="136" height="1" x="561" y="506.5" rx="0.5" transform="rotate(45, 629, 507)" opacity="0.18"></rect><rect width="98" height="1" x="499" y="221.5" rx="0.5" transform="rotate(45, 548, 222)" opacity="0.15"></rect><rect width="80" height="1" x="247" y="502.5" rx="0.5" transform="rotate(45, 287, 503)" opacity="0.10"></rect><rect width="83" height="1" x="71.5" y="513.5" rx="0.5" transform="rotate(45, 113, 514)" opacity="0.44"></rect><rect width="76" height="1" x="710" y="406.5" rx="0.5" transform="rotate(45, 748, 407)" opacity="0.15"></rect><rect width="65" height="1" x="617.5" y="68.5" rx="0.5" transform="rotate(45, 650, 69)" opacity="0.91"></rect><rect width="82" height="1" x="672" y="720.5" rx="0.5" transform="rotate(45, 713, 721)" opacity="0.17"></rect><rect width="64" height="1" x="706" y="157.5" rx="0.5" transform="rotate(45, 738, 158)" opacity="0.41"></rect><rect width="128" height="1" x="350" y="275.5" rx="0.5" transform="rotate(45, 414, 276)" opacity="0.12"></rect><rect width="81" height="1" x="151.5" y="692.5" rx="0.5" transform="rotate(45, 192, 693)" opacity="0.74"></rect><rect width="124" height="1" x="429" y="403.5" rx="0.5" transform="rotate(45, 491, 404)" opacity="0.95"></rect><rect width="114" height="1" x="514" y="697.5" rx="0.5" transform="rotate(45, 571, 698)" opacity="0.99"></rect><rect width="102" height="1" x="429" y="544.5" rx="0.5" transform="rotate(45, 480, 545)" opacity="0.50"></rect><rect width="94" height="1" x="302" y="612.5" rx="0.5" transform="rotate(45, 349, 613)" opacity="0.68"></rect><rect width="86" height="1" x="266" y="745.5" rx="0.5" transform="rotate(45, 309, 746)" opacity="0.31"></rect></g></svg>